<!DOCTYPE svg PUBLIC "-//W3C//DTD SVG 1.1//EN" "http://www.w3.org/Graphics/SVG/1.1/DTD/svg11.dtd">
<svg version="1.1" id="github" xmlns="http://www.w3.org/2000/svg" xmlns:xlink="http://www.w3.org/1999/xlink"
	 x="0px" y="0px" viewBox="0 0 11.493055 11.209466" enable-background="new 0 0 20 20" xml:space="preserve">
<g transform="translate(-89.503426,-109.21074)">
	<path d="m 95.249472,109.21074 c -3.172884,0 -5.746046,2.57281
		-5.746046,5.74675 0,2.53859 1.646414,4.69265 3.929946,5.45289 0.287514,0.0526
		0.392289,-0.12489 0.392289,-0.27729 0,-0.13652 -0.0049,-0.49776
		-0.0078,-0.97719 -1.598437,0.34713 -1.935692,-0.77047 -1.935692,-0.77047
		-0.261409,-0.66392 -0.638177,-0.84067 -0.638177,-0.84067 -0.521758,-0.3563
		0.03951,-0.34925 0.03951,-0.34925 0.576794,0.0406 0.880182,0.59232
		0.880182,0.59232 0.512586,0.87806 1.345142,0.62442 1.67252,0.47731
		0.05221,-0.37113 0.20073,-0.62442 0.364772,-0.768 -1.275997,-0.14534
		-2.617611,-0.63818 -2.617611,-2.84021 0,-0.6276 0.224014,-1.14018
		0.591608,-1.542 -0.05927,-0.14534 -0.256469,-0.72954 0.05644,-1.52082 0,0
		0.482247,-0.15452 1.580091,0.58879 0.458259,-0.12736 0.950031,-0.19086
		1.438628,-0.19333 0.488244,0.002 0.979664,0.066 1.438628,0.19333
		1.097139,-0.74331 1.57868,-0.58879 1.57868,-0.58879 0.31362,0.79128
		0.116417,1.37548 0.0575,1.52082 0.3683,0.40182 0.59055,0.9144 0.59055,1.542
		0,2.20768 -1.34373,2.69345 -2.623608,2.83562 0.206022,0.17745 0.389819,0.52811
		0.389819,1.06433 0,0.768 -0.0071,1.38783 -0.0071,1.57621 0,0.15382
		0.103717,0.33267 0.395111,0.27658 2.28177,-0.76164 3.926768,-2.91394
		3.926768,-5.45218 0,-3.17394 -2.573156,-5.74675 -5.747097,-5.74675"/>
</g>
</svg>
